<svg width="962" height="85" viewBox="0 0 962 85" fill="none" xmlns="http://www.w3.org/2000/svg">
<path d="M18.3878 24.5015H12.884L6.89544 14.8698L4.84714 16.3395V24.5015H0V1.64177H4.84714V12.1022C5.17028 11.654 5.48821 11.2057 5.80093 10.7575C6.11364 10.3093 6.43158 9.86105 6.75472 9.41282L12.9465 1.64177H18.3253L10.351 11.7582L18.3878 24.5015ZM28.0977 6.69217C29.7135 6.69217 31.1051 7.00489 32.2725 7.63033C33.44 8.24534 34.3417 9.1418 34.9776 10.3197C35.6134 11.4976 35.9313 12.9361 35.9313 14.6352V16.9493H24.6578C24.71 18.294 25.1113 19.3521 25.8618 20.1234C26.6228 20.8844 27.6756 21.2649 29.0203 21.2649C30.1356 21.2649 31.1572 21.1502 32.0849 20.9209C33.0126 20.6915 33.9664 20.3475 34.9463 19.8889V23.579C34.0811 24.0063 33.1742 24.3191 32.2256 24.5171C31.2875 24.7152 30.1461 24.8142 28.8014 24.8142C27.0501 24.8142 25.497 24.4911 24.1419 23.8448C22.7972 23.1985 21.7391 22.2134 20.9678 20.8896C20.2068 19.5657 19.8263 17.8979 19.8263 15.8861C19.8263 13.843 20.1703 12.1439 20.8583 10.7888C21.5567 9.42325 22.5261 8.4017 23.7666 7.72414C25.007 7.03616 26.4508 6.69217 28.0977 6.69217ZM28.129 10.0852C27.2013 10.0852 26.4299 10.3823 25.8149 10.9764C25.2103 11.5706 24.8611 12.5035 24.7673 13.7752H31.4595C31.449 13.0664 31.3187 12.4358 31.0686 11.8833C30.8288 11.3308 30.464 10.893 29.9741 10.5699C29.4946 10.2467 28.8795 10.0852 28.129 10.0852ZM37.3073 7.02053H42.5297L45.8289 16.8555C45.9331 17.1682 46.0217 17.4862 46.0947 17.8093C46.1677 18.1325 46.2302 18.466 46.2823 18.81C46.3344 19.154 46.3761 19.5136 46.4074 19.8889H46.5012C46.5638 19.326 46.6472 18.7996 46.7514 18.3097C46.8661 17.8197 47.0068 17.335 47.1736 16.8555L50.4102 7.02053H55.5232L48.1274 26.7374C47.6791 27.9466 47.0954 28.9525 46.3761 29.7552C45.6569 30.5682 44.8282 31.178 43.89 31.5846C42.9623 31.9911 41.9408 32.1944 40.8254 32.1944C40.2833 32.1944 39.8143 32.1631 39.4182 32.1005C39.022 32.0484 38.6833 31.9911 38.4018 31.9285V28.1447C38.6207 28.1968 38.897 28.2437 39.2305 28.2854C39.5641 28.3271 39.9133 28.3479 40.2781 28.3479C40.9453 28.3479 41.5186 28.2072 41.9981 27.9258C42.4776 27.6443 42.8789 27.2638 43.202 26.7843C43.5252 26.3153 43.7806 25.7993 43.9682 25.2364L44.2497 24.3764L37.3073 7.02053ZM71.5031 24.5015H66.7341V1.64177H79.837V5.6133H71.5031V11.508H79.2585V15.4639H71.5031V24.5015ZM91.1418 6.69217C92.7575 6.69217 94.1491 7.00489 95.3166 7.63033C96.4841 8.24534 97.3857 9.1418 98.0216 10.3197C98.6574 11.4976 98.9754 12.9361 98.9754 14.6352V16.9493H87.7019C87.754 18.294 88.1553 19.3521 88.9058 20.1234C89.6668 20.8844 90.7196 21.2649 92.0643 21.2649C93.1797 21.2649 94.2012 21.1502 95.1289 20.9209C96.0567 20.6915 97.0105 20.3475 97.9903 19.8889V23.579C97.1251 24.0063 96.2182 24.3191 95.2697 24.5171C94.3315 24.7152 93.1901 24.8142 91.8454 24.8142C90.0942 24.8142 88.541 24.4911 87.1859 23.8448C85.8412 23.1985 84.7832 22.2134 84.0118 20.8896C83.2509 19.5657 82.8704 17.8979 82.8704 15.8861C82.8704 13.843 83.2144 12.1439 83.9023 10.7888C84.6008 9.42325 85.5702 8.4017 86.8106 7.72414C88.0511 7.03616 89.4948 6.69217 91.1418 6.69217ZM91.1731 10.0852C90.2453 10.0852 89.4739 10.3823 88.8589 10.9764C88.2543 11.5706 87.9051 12.5035 87.8113 13.7752H94.5035C94.4931 13.0664 94.3628 12.4358 94.1126 11.8833C93.8729 11.3308 93.508 10.893 93.0181 10.5699C92.5386 10.2467 91.9236 10.0852 91.1731 10.0852ZM110.014 6.6609C112.36 6.6609 114.158 7.17168 115.409 8.19322C116.66 9.21477 117.285 10.7679 117.285 12.8527V24.5015H113.955L113.032 22.1248H112.907C112.407 22.7503 111.896 23.261 111.375 23.6571C110.853 24.0533 110.254 24.3451 109.577 24.5328C108.899 24.7204 108.075 24.8142 107.106 24.8142C106.074 24.8142 105.146 24.6162 104.323 24.22C103.51 23.8239 102.869 23.2193 102.4 22.4063C101.931 21.5828 101.696 20.5404 101.696 19.2791C101.696 17.4236 102.348 16.0581 103.651 15.1825C104.954 14.2964 106.908 13.8065 109.514 13.7127L112.547 13.6189V12.8527C112.547 11.9354 112.308 11.2631 111.828 10.8357C111.349 10.4083 110.681 10.1946 109.827 10.1946C108.982 10.1946 108.154 10.3145 107.341 10.5542C106.528 10.794 105.714 11.0963 104.901 11.4611L103.322 8.24013C104.25 7.7502 105.287 7.36452 106.434 7.08307C107.591 6.80163 108.784 6.6609 110.014 6.6609ZM112.547 16.4021L110.702 16.4646C109.16 16.5063 108.086 16.7826 107.481 17.2933C106.887 17.8041 106.59 18.4764 106.59 19.3104C106.59 20.04 106.804 20.5612 107.231 20.874C107.659 21.1762 108.216 21.3274 108.904 21.3274C109.926 21.3274 110.786 21.0251 111.484 20.4205C112.193 19.8159 112.547 18.9559 112.547 17.8406V16.4021ZM129.575 21.0147C130.096 21.0147 130.602 20.9626 131.092 20.8583C131.592 20.7541 132.087 20.6238 132.577 20.4674V24.0168C132.066 24.2461 131.43 24.4337 130.669 24.5797C129.919 24.736 129.095 24.8142 128.199 24.8142C127.157 24.8142 126.218 24.6474 125.384 24.3139C124.561 23.9699 123.909 23.3809 123.43 22.547C122.961 21.7027 122.726 20.53 122.726 19.0289V10.6012H120.443V8.58412L123.07 6.98926L124.446 3.29918H127.495V7.02053H132.389V10.6012H127.495V19.0289C127.495 19.696 127.683 20.1964 128.058 20.53C128.444 20.8531 128.949 21.0147 129.575 21.0147ZM152.169 7.02053V24.5015H148.51L147.869 22.2656H147.619C147.243 22.8597 146.774 23.3444 146.211 23.7197C145.649 24.095 145.028 24.3712 144.351 24.5484C143.673 24.7256 142.97 24.8142 142.24 24.8142C140.989 24.8142 139.9 24.5953 138.972 24.1575C138.044 23.7093 137.32 23.0161 136.799 22.0779C136.288 21.1398 136.033 19.9202 136.033 18.4191V7.02053H140.801V17.2308C140.801 18.4817 141.026 19.425 141.474 20.0609C141.922 20.6967 142.636 21.0147 143.616 21.0147C144.585 21.0147 145.346 20.7958 145.899 20.358C146.451 19.9097 146.837 19.2582 147.056 18.4035C147.285 17.5383 147.4 16.4855 147.4 15.245V7.02053H152.169ZM166.929 6.69217C167.169 6.69217 167.445 6.70781 167.758 6.73908C168.081 6.75993 168.342 6.7912 168.54 6.8329L168.18 11.3048C168.024 11.2527 167.799 11.2162 167.508 11.1953C167.226 11.164 166.981 11.1484 166.773 11.1484C166.158 11.1484 165.558 11.2266 164.975 11.383C164.401 11.5393 163.885 11.7947 163.427 12.1491C162.968 12.4931 162.603 12.9518 162.332 13.5251C162.072 14.088 161.941 14.7812 161.941 15.6046V24.5015H157.172V7.02053H160.784L161.488 9.96008H161.722C162.066 9.36592 162.494 8.82387 163.004 8.33395C163.526 7.8336 164.115 7.43749 164.771 7.14562C165.438 6.84332 166.158 6.69217 166.929 6.69217ZM178.922 6.69217C180.538 6.69217 181.929 7.00489 183.097 7.63033C184.264 8.24534 185.166 9.1418 185.802 10.3197C186.438 11.4976 186.755 12.9361 186.755 14.6352V16.9493H175.482C175.534 18.294 175.935 19.3521 176.686 20.1234C177.447 20.8844 178.5 21.2649 179.844 21.2649C180.96 21.2649 181.981 21.1502 182.909 20.9209C183.837 20.6915 184.791 20.3475 185.77 19.8889V23.579C184.905 24.0063 183.998 24.3191 183.05 24.5171C182.112 24.7152 180.97 24.8142 179.625 24.8142C177.874 24.8142 176.321 24.4911 174.966 23.8448C173.621 23.1985 172.563 22.2134 171.792 20.8896C171.031 19.5657 170.65 17.8979 170.65 15.8861C170.65 13.843 170.994 12.1439 171.682 10.7888C172.381 9.42325 173.35 8.4017 174.591 7.72414C175.831 7.03616 177.275 6.69217 178.922 6.69217ZM178.953 10.0852C178.025 10.0852 177.254 10.3823 176.639 10.9764C176.034 11.5706 175.685 12.5035 175.591 13.7752H182.284C182.273 13.0664 182.143 12.4358 181.893 11.8833C181.653 11.3308 181.288 10.893 180.798 10.5699C180.319 10.2467 179.704 10.0852 178.953 10.0852ZM202.829 19.3104C202.829 20.4987 202.548 21.5046 201.985 22.3281C201.432 23.1412 200.604 23.7614 199.499 24.1888C198.394 24.6057 197.018 24.8142 195.371 24.8142C194.151 24.8142 193.104 24.736 192.228 24.5797C191.363 24.4233 190.487 24.1627 189.601 23.7979V19.8576C190.55 20.285 191.566 20.6394 192.65 20.9209C193.745 21.1919 194.704 21.3274 195.527 21.3274C196.455 21.3274 197.117 21.1919 197.513 20.9209C197.919 20.6394 198.123 20.2746 198.123 19.8263C198.123 19.5345 198.039 19.2739 197.873 19.0446C197.716 18.8048 197.372 18.539 196.841 18.2471C196.309 17.9448 195.475 17.5539 194.339 17.0744C193.244 16.6158 192.343 16.1519 191.634 15.6828C190.935 15.2138 190.414 14.6613 190.07 14.0254C189.737 13.3791 189.57 12.5609 189.57 11.5706C189.57 9.95487 190.195 8.74048 191.446 7.92741C192.708 7.10392 194.391 6.69217 196.497 6.69217C197.581 6.69217 198.613 6.80163 199.593 7.02053C200.583 7.23943 201.599 7.58863 202.642 8.06813L201.203 11.508C200.338 11.1328 199.52 10.8253 198.748 10.5855C197.987 10.3458 197.211 10.2259 196.418 10.2259C195.72 10.2259 195.194 10.3197 194.839 10.5073C194.485 10.695 194.308 10.9816 194.308 11.3673C194.308 11.6488 194.396 11.8989 194.573 12.1178C194.761 12.3367 195.115 12.5817 195.637 12.8527C196.168 13.1133 196.945 13.4521 197.966 13.8691C198.957 14.2756 199.817 14.703 200.546 15.1512C201.276 15.589 201.839 16.1363 202.235 16.793C202.631 17.4393 202.829 18.2784 202.829 19.3104ZM230.755 15.7297C230.755 17.1891 230.557 18.4817 230.161 19.6074C229.775 20.7332 229.207 21.687 228.456 22.4688C227.716 23.2402 226.82 23.8239 225.767 24.22C224.725 24.6162 223.547 24.8142 222.233 24.8142C221.003 24.8142 219.872 24.6162 218.84 24.22C217.819 23.8239 216.928 23.2402 216.167 22.4688C215.416 21.687 214.832 20.7332 214.415 19.6074C214.009 18.4817 213.806 17.1891 213.806 15.7297C213.806 13.7909 214.15 12.1491 214.838 10.8044C215.526 9.45973 216.505 8.43819 217.777 7.73978C219.049 7.04138 220.566 6.69217 222.327 6.69217C223.964 6.69217 225.413 7.04138 226.674 7.73978C227.946 8.43819 228.941 9.45973 229.66 10.8044C230.39 12.1491 230.755 13.7909 230.755 15.7297ZM218.668 15.7297C218.668 16.8764 218.793 17.8406 219.044 18.6224C219.294 19.4042 219.685 19.9931 220.216 20.3892C220.748 20.7854 221.441 20.9834 222.296 20.9834C223.14 20.9834 223.823 20.7854 224.344 20.3892C224.876 19.9931 225.261 19.4042 225.501 18.6224C225.751 17.8406 225.877 16.8764 225.877 15.7297C225.877 14.5727 225.751 13.6137 225.501 12.8527C225.261 12.0814 224.876 11.5028 224.344 11.1171C223.813 10.7315 223.119 10.5386 222.265 10.5386C221.003 10.5386 220.086 10.9712 219.513 11.8364C218.95 12.7016 218.668 13.9994 218.668 15.7297ZM244.358 10.6012H240.23V24.5015H235.461V10.6012H232.834V8.30267L235.461 7.02053V5.73838C235.461 4.24776 235.711 3.0907 236.212 2.26721C236.723 1.43329 237.437 0.849552 238.354 0.515985C239.282 0.171995 240.376 0 241.638 0C242.565 0 243.41 0.0781796 244.171 0.234539C244.931 0.380474 245.552 0.547257 246.031 0.734888L244.812 4.23733C244.447 4.12267 244.051 4.01843 243.623 3.92462C243.196 3.8308 242.706 3.78389 242.153 3.78389C241.486 3.78389 240.996 3.98716 240.684 4.39369C240.381 4.7898 240.23 5.30058 240.23 5.92601V7.02053H244.358V10.6012ZM274.535 24.5015H269.704V14.6352H260.651V24.5015H255.804V1.64177H260.651V10.6012H269.704V1.64177H274.535V24.5015ZM284.714 7.02053V24.5015H279.946V7.02053H284.714ZM282.338 0.171995C283.047 0.171995 283.656 0.338778 284.167 0.672345C284.678 0.995487 284.933 1.60529 284.933 2.50175C284.933 3.38778 284.678 4.0028 284.167 4.34679C283.656 4.68035 283.047 4.84714 282.338 4.84714C281.619 4.84714 281.004 4.68035 280.493 4.34679C279.992 4.0028 279.742 3.38778 279.742 2.50175C279.742 1.60529 279.992 0.995487 280.493 0.672345C281.004 0.338778 281.619 0.171995 282.338 0.171995ZM299.49 6.69217C299.73 6.69217 300.006 6.70781 300.319 6.73908C300.642 6.75993 300.903 6.7912 301.101 6.8329L300.741 11.3048C300.585 11.2527 300.361 11.2162 300.069 11.1953C299.788 11.164 299.543 11.1484 299.334 11.1484C298.719 11.1484 298.12 11.2266 297.536 11.383C296.963 11.5393 296.447 11.7947 295.988 12.1491C295.529 12.4931 295.164 12.9518 294.893 13.5251C294.633 14.088 294.503 14.7812 294.503 15.6046V24.5015H289.734V7.02053H293.346L294.049 9.96008H294.284C294.628 9.36592 295.055 8.82387 295.566 8.33395C296.087 7.8336 296.676 7.43749 297.333 7.14562C298 6.84332 298.719 6.69217 299.49 6.69217ZM309.044 7.02053V24.5015H304.275V7.02053H309.044ZM306.667 0.171995C307.376 0.171995 307.986 0.338778 308.497 0.672345C309.007 0.995487 309.263 1.60529 309.263 2.50175C309.263 3.38778 309.007 4.0028 308.497 4.34679C307.986 4.68035 307.376 4.84714 306.667 4.84714C305.948 4.84714 305.333 4.68035 304.822 4.34679C304.322 4.0028 304.072 3.38778 304.072 2.50175C304.072 1.60529 304.322 0.995487 304.822 0.672345C305.333 0.338778 305.948 0.171995 306.667 0.171995ZM323.992 6.69217C325.858 6.69217 327.359 7.20295 328.495 8.22449C329.631 9.23562 330.199 10.8618 330.199 13.1029V24.5015H325.43V14.2912C325.43 13.0404 325.201 12.097 324.742 11.4611C324.294 10.8253 323.585 10.5073 322.616 10.5073C321.157 10.5073 320.161 11.0025 319.629 11.9928C319.098 12.983 318.832 14.4111 318.832 16.277V24.5015H314.063V7.02053H317.706L318.347 9.25646H318.613C318.988 8.65188 319.452 8.16195 320.005 7.78669C320.568 7.41143 321.188 7.13519 321.865 6.95798C322.553 6.78078 323.262 6.69217 323.992 6.69217ZM340.222 32.1944C337.783 32.1944 335.917 31.767 334.624 30.9122C333.342 30.0679 332.701 28.8795 332.701 27.3472C332.701 26.2944 333.029 25.4136 333.686 24.7048C334.343 23.9959 335.307 23.4904 336.579 23.1881C336.089 22.9796 335.662 22.6408 335.297 22.1717C334.932 21.6922 334.749 21.1867 334.749 20.6551C334.749 19.9879 334.942 19.4354 335.328 18.9976C335.714 18.5494 336.271 18.1116 337.001 17.6842C336.084 17.2881 335.354 16.6523 334.812 15.7766C334.28 14.901 334.015 13.8691 334.015 12.6807C334.015 11.409 334.291 10.3301 334.843 9.4441C335.406 8.54764 336.219 7.86487 337.282 7.39579C338.356 6.92671 339.659 6.69217 341.191 6.69217C341.515 6.69217 341.89 6.71302 342.317 6.75472C342.745 6.79641 343.135 6.84332 343.49 6.89544C343.855 6.94756 344.1 6.98926 344.225 7.02053H350.323V9.4441L347.587 10.1477C347.837 10.5334 348.024 10.9451 348.149 11.383C348.274 11.8208 348.337 12.2846 348.337 12.7745C348.337 14.6509 347.68 16.1154 346.367 17.1682C345.064 18.2106 343.25 18.7318 340.926 18.7318C340.373 18.7006 339.852 18.6589 339.362 18.6067C339.122 18.7944 338.94 18.9924 338.815 19.2009C338.69 19.4094 338.627 19.6283 338.627 19.8576C338.627 20.0869 338.721 20.2798 338.909 20.4361C339.107 20.5821 339.398 20.6967 339.784 20.7801C340.18 20.8531 340.67 20.8896 341.254 20.8896H344.225C346.143 20.8896 347.602 21.3013 348.603 22.1248C349.614 22.9483 350.12 24.1575 350.12 25.7524C350.12 27.7955 349.265 29.3799 347.555 30.5057C345.856 31.6315 343.412 32.1944 340.222 32.1944ZM340.425 29.0828C341.561 29.0828 342.536 28.9734 343.349 28.7545C344.173 28.546 344.803 28.2437 345.241 27.8476C345.679 27.4619 345.898 26.998 345.898 26.456C345.898 26.0182 345.768 25.669 345.507 25.4084C345.257 25.1582 344.871 24.981 344.35 24.8767C343.839 24.7725 343.182 24.7204 342.38 24.7204H339.909C339.326 24.7204 338.799 24.8142 338.33 25.0018C337.871 25.1895 337.507 25.4501 337.236 25.7836C336.965 26.1276 336.829 26.5237 336.829 26.972C336.829 27.6287 337.142 28.1447 337.767 28.5199C338.403 28.8952 339.289 29.0828 340.425 29.0828ZM341.191 15.8236C342.088 15.8236 342.745 15.5473 343.162 14.9948C343.579 14.4424 343.787 13.6919 343.787 12.7433C343.787 11.6905 343.568 10.9034 343.13 10.3823C342.703 9.85063 342.057 9.58482 341.191 9.58482C340.316 9.58482 339.659 9.85063 339.221 10.3823C338.783 10.9034 338.565 11.6905 338.565 12.7433C338.565 13.6919 338.778 14.4424 339.206 14.9948C339.643 15.5473 340.305 15.8236 341.191 15.8236ZM380.875 12.8527C380.875 15.4274 380.38 17.58 379.39 19.3104C378.41 21.0303 376.987 22.3281 375.121 23.2037C373.255 24.0689 371.009 24.5015 368.382 24.5015H361.909V1.64177H369.086C371.483 1.64177 373.563 2.06915 375.325 2.92392C377.086 3.76826 378.452 5.02434 379.421 6.69217C380.391 8.34958 380.875 10.4031 380.875 12.8527ZM375.841 12.9778C375.841 11.2891 375.59 9.90275 375.09 8.81866C374.6 7.72414 373.87 6.91629 372.901 6.39509C371.942 5.87389 370.754 5.6133 369.336 5.6133H366.756V20.4987H368.836C371.202 20.4987 372.958 19.868 374.105 18.6067C375.262 17.3454 375.841 15.4691 375.841 12.9778ZM392.446 6.69217C394.062 6.69217 395.453 7.00489 396.621 7.63033C397.788 8.24534 398.69 9.1418 399.326 10.3197C399.962 11.4976 400.28 12.9361 400.28 14.6352V16.9493H389.006C389.058 18.294 389.46 19.3521 390.21 20.1234C390.971 20.8844 392.024 21.2649 393.368 21.2649C394.484 21.2649 395.505 21.1502 396.433 20.9209C397.361 20.6915 398.315 20.3475 399.294 19.8889V23.579C398.429 24.0063 397.522 24.3191 396.574 24.5171C395.636 24.7152 394.494 24.8142 393.15 24.8142C391.398 24.8142 389.845 24.4911 388.49 23.8448C387.145 23.1985 386.087 22.2134 385.316 20.8896C384.555 19.5657 384.175 17.8979 384.175 15.8861C384.175 13.843 384.519 12.1439 385.207 10.7888C385.905 9.42325 386.874 8.4017 388.115 7.72414C389.355 7.03616 390.799 6.69217 392.446 6.69217ZM392.477 10.0852C391.55 10.0852 390.778 10.3823 390.163 10.9764C389.559 11.5706 389.209 12.5035 389.116 13.7752H395.808C395.797 13.0664 395.667 12.4358 395.417 11.8833C395.177 11.3308 394.812 10.893 394.322 10.5699C393.843 10.2467 393.228 10.0852 392.477 10.0852ZM409.692 24.8142C407.743 24.8142 406.153 24.0533 404.923 22.5314C403.704 20.999 403.094 18.7527 403.094 15.7923C403.094 12.8006 403.714 10.5386 404.955 9.00629C406.195 7.46355 407.816 6.69217 409.817 6.69217C410.651 6.69217 411.386 6.80684 412.022 7.03616C412.658 7.26549 413.205 7.573 413.664 7.95868C414.133 8.34437 414.529 8.77696 414.852 9.25646H415.009C414.946 8.9229 414.868 8.43297 414.774 7.78669C414.691 7.12998 414.649 6.45764 414.649 5.76965V0.171995H419.434V24.5015H415.775L414.852 22.2343H414.649C414.347 22.7138 413.966 23.1516 413.508 23.5477C413.059 23.9334 412.522 24.2409 411.897 24.4702C411.272 24.6995 410.537 24.8142 409.692 24.8142ZM411.365 21.0147C412.668 21.0147 413.586 20.629 414.117 19.8576C414.659 19.0758 414.946 17.9031 414.977 16.3395V15.8236C414.977 14.1244 414.717 12.8267 414.196 11.9302C413.674 11.0233 412.705 10.5699 411.287 10.5699C410.234 10.5699 409.411 11.0233 408.817 11.9302C408.223 12.8371 407.926 14.1453 407.926 15.8548C407.926 17.5644 408.223 18.8517 408.817 19.7169C409.421 20.5821 410.271 21.0147 411.365 21.0147ZM429.19 7.02053V24.5015H424.421V7.02053H429.19ZM426.814 0.171995C427.523 0.171995 428.132 0.338778 428.643 0.672345C429.154 0.995487 429.409 1.60529 429.409 2.50175C429.409 3.38778 429.154 4.0028 428.643 4.34679C428.132 4.68035 427.523 4.84714 426.814 4.84714C426.094 4.84714 425.479 4.68035 424.969 4.34679C424.468 4.0028 424.218 3.38778 424.218 2.50175C424.218 1.60529 424.468 0.995487 424.969 0.672345C425.479 0.338778 426.094 0.171995 426.814 0.171995ZM441.308 24.8142C439.578 24.8142 438.103 24.5015 436.883 23.8761C435.664 23.2402 434.736 22.2603 434.1 20.9365C433.464 19.6127 433.146 17.9188 433.146 15.8548C433.146 13.7179 433.506 11.9771 434.225 10.6324C434.955 9.27731 435.961 8.28183 437.243 7.64597C438.535 7.0101 440.031 6.69217 441.73 6.69217C442.94 6.69217 443.982 6.81205 444.858 7.0518C445.744 7.28113 446.515 7.55736 447.172 7.8805L445.764 11.5706C445.014 11.2683 444.316 11.0233 443.669 10.8357C443.023 10.6376 442.377 10.5386 441.73 10.5386C440.896 10.5386 440.203 10.7367 439.651 11.1328C439.098 11.5185 438.687 12.1022 438.416 12.884C438.145 13.6658 438.009 14.6456 438.009 15.8236C438.009 16.9806 438.155 17.9396 438.447 18.7006C438.739 19.4615 439.161 20.0296 439.713 20.4049C440.266 20.7697 440.938 20.9521 441.73 20.9521C442.721 20.9521 443.601 20.8218 444.373 20.5612C445.144 20.2902 445.895 19.915 446.624 19.4354V23.5164C445.895 23.9751 445.129 24.3034 444.326 24.5015C443.534 24.71 442.528 24.8142 441.308 24.8142ZM457.851 6.6609C460.196 6.6609 461.995 7.17168 463.245 8.19322C464.496 9.21477 465.122 10.7679 465.122 12.8527V24.5015H461.791L460.869 22.1248H460.744C460.243 22.7503 459.733 23.261 459.211 23.6571C458.69 24.0533 458.091 24.3451 457.413 24.5328C456.736 24.7204 455.912 24.8142 454.943 24.8142C453.911 24.8142 452.983 24.6162 452.16 24.22C451.346 23.8239 450.705 23.2193 450.236 22.4063C449.767 21.5828 449.533 20.5404 449.533 19.2791C449.533 17.4236 450.184 16.0581 451.487 15.1825C452.79 14.2964 454.745 13.8065 457.351 13.7127L460.384 13.6189V12.8527C460.384 11.9354 460.144 11.2631 459.665 10.8357C459.185 10.4083 458.518 10.1946 457.663 10.1946C456.819 10.1946 455.99 10.3145 455.177 10.5542C454.364 10.794 453.551 11.0963 452.738 11.4611L451.159 8.24013C452.087 7.7502 453.124 7.36452 454.27 7.08307C455.427 6.80163 456.621 6.6609 457.851 6.6609ZM460.384 16.4021L458.539 16.4646C456.996 16.5063 455.923 16.7826 455.318 17.2933C454.724 17.8041 454.427 18.4764 454.427 19.3104C454.427 20.04 454.64 20.5612 455.068 20.874C455.495 21.1762 456.053 21.3274 456.741 21.3274C457.762 21.3274 458.622 21.0251 459.321 20.4205C460.03 19.8159 460.384 18.9559 460.384 17.8406V16.4021ZM477.412 21.0147C477.933 21.0147 478.438 20.9626 478.928 20.8583C479.429 20.7541 479.924 20.6238 480.414 20.4674V24.0168C479.903 24.2461 479.267 24.4337 478.506 24.5797C477.756 24.736 476.932 24.8142 476.036 24.8142C474.993 24.8142 474.055 24.6474 473.221 24.3139C472.398 23.9699 471.746 23.3809 471.267 22.547C470.798 21.7027 470.563 20.53 470.563 19.0289V10.6012H468.28V8.58412L470.907 6.98926L472.283 3.29918H475.332V7.02053H480.226V10.6012H475.332V19.0289C475.332 19.696 475.52 20.1964 475.895 20.53C476.281 20.8531 476.786 21.0147 477.412 21.0147ZM491.171 6.69217C492.787 6.69217 494.178 7.00489 495.346 7.63033C496.513 8.24534 497.415 9.1418 498.051 10.3197C498.687 11.4976 499.005 12.9361 499.005 14.6352V16.9493H487.731C487.783 18.294 488.185 19.3521 488.935 20.1234C489.696 20.8844 490.749 21.2649 492.094 21.2649C493.209 21.2649 494.231 21.1502 495.158 20.9209C496.086 20.6915 497.04 20.3475 498.02 19.8889V23.579C497.155 24.0063 496.248 24.3191 495.299 24.5171C494.361 24.7152 493.219 24.8142 491.875 24.8142C490.124 24.8142 488.57 24.4911 487.215 23.8448C485.871 23.1985 484.813 22.2134 484.041 20.8896C483.28 19.5657 482.9 17.8979 482.9 15.8861C482.9 13.843 483.244 12.1439 483.932 10.7888C484.63 9.42325 485.6 8.4017 486.84 7.72414C488.08 7.03616 489.524 6.69217 491.171 6.69217ZM491.202 10.0852C490.275 10.0852 489.503 10.3823 488.888 10.9764C488.284 11.5706 487.935 12.5035 487.841 13.7752H494.533C494.522 13.0664 494.392 12.4358 494.142 11.8833C493.902 11.3308 493.537 10.893 493.047 10.5699C492.568 10.2467 491.953 10.0852 491.202 10.0852ZM508.418 24.8142C506.468 24.8142 504.879 24.0533 503.649 22.5314C502.429 20.999 501.819 18.7527 501.819 15.7923C501.819 12.8006 502.439 10.5386 503.68 9.00629C504.92 7.46355 506.541 6.69217 508.543 6.69217C509.377 6.69217 510.111 6.80684 510.747 7.03616C511.383 7.26549 511.93 7.573 512.389 7.95868C512.858 8.34437 513.254 8.77696 513.577 9.25646H513.734C513.671 8.9229 513.593 8.43297 513.499 7.78669C513.416 7.12998 513.374 6.45764 513.374 5.76965V0.171995H518.159V24.5015H514.5L513.577 22.2343H513.374C513.072 22.7138 512.691 23.1516 512.233 23.5477C511.785 23.9334 511.248 24.2409 510.622 24.4702C509.997 24.6995 509.262 24.8142 508.418 24.8142ZM510.091 21.0147C511.394 21.0147 512.311 20.629 512.843 19.8576C513.385 19.0758 513.671 17.9031 513.703 16.3395V15.8236C513.703 14.1244 513.442 12.8267 512.921 11.9302C512.4 11.0233 511.43 10.5699 510.012 10.5699C508.96 10.5699 508.136 11.0233 507.542 11.9302C506.948 12.8371 506.651 14.1453 506.651 15.8548C506.651 17.5644 506.948 18.8517 507.542 19.7169C508.147 20.5821 508.996 21.0147 510.091 21.0147ZM550.807 12.8527C550.807 15.4274 550.311 17.58 549.321 19.3104C548.341 21.0303 546.918 22.3281 545.053 23.2037C543.187 24.0689 540.94 24.5015 538.313 24.5015H531.84V1.64177H539.017C541.415 1.64177 543.494 2.06915 545.256 2.92392C547.017 3.76826 548.383 5.02434 549.352 6.69217C550.322 8.34958 550.807 10.4031 550.807 12.8527ZM545.772 12.9778C545.772 11.2891 545.522 9.90275 545.021 8.81866C544.531 7.72414 543.802 6.91629 542.832 6.39509C541.873 5.87389 540.685 5.6133 539.267 5.6133H536.687V20.4987H538.767C541.133 20.4987 542.89 19.868 544.036 18.6067C545.193 17.3454 545.772 15.4691 545.772 12.9778ZM562.377 6.69217C563.993 6.69217 565.384 7.00489 566.552 7.63033C567.719 8.24534 568.621 9.1418 569.257 10.3197C569.893 11.4976 570.211 12.9361 570.211 14.6352V16.9493H558.937C558.989 18.294 559.391 19.3521 560.141 20.1234C560.902 20.8844 561.955 21.2649 563.3 21.2649C564.415 21.2649 565.437 21.1502 566.364 20.9209C567.292 20.6915 568.246 20.3475 569.226 19.8889V23.579C568.36 24.0063 567.454 24.3191 566.505 24.5171C565.567 24.7152 564.425 24.8142 563.081 24.8142C561.33 24.8142 559.776 24.4911 558.421 23.8448C557.077 23.1985 556.019 22.2134 555.247 20.8896C554.486 19.5657 554.106 17.8979 554.106 15.8861C554.106 13.843 554.45 12.1439 555.138 10.7888C555.836 9.42325 556.806 8.4017 558.046 7.72414C559.286 7.03616 560.73 6.69217 562.377 6.69217ZM562.408 10.0852C561.481 10.0852 560.709 10.3823 560.094 10.9764C559.49 11.5706 559.141 12.5035 559.047 13.7752H565.739C565.728 13.0664 565.598 12.4358 565.348 11.8833C565.108 11.3308 564.743 10.893 564.253 10.5699C563.774 10.2467 563.159 10.0852 562.408 10.0852ZM578.248 24.5015L571.587 7.02053H576.575L579.952 16.9806C580.14 17.5644 580.285 18.1794 580.39 18.8256C580.504 19.4719 580.583 20.0505 580.624 20.5612H580.749C580.781 20.0088 580.854 19.4198 580.968 18.7944C581.093 18.1689 581.255 17.5644 581.453 16.9806L584.815 7.02053H589.803L583.142 24.5015H578.248ZM599.528 6.69217C601.144 6.69217 602.535 7.00489 603.703 7.63033C604.87 8.24534 605.772 9.1418 606.408 10.3197C607.044 11.4976 607.362 12.9361 607.362 14.6352V16.9493H596.088C596.14 18.294 596.542 19.3521 597.292 20.1234C598.053 20.8844 599.106 21.2649 600.451 21.2649C601.566 21.2649 602.588 21.1502 603.515 20.9209C604.443 20.6915 605.397 20.3475 606.377 19.8889V23.579C605.511 24.0063 604.605 24.3191 603.656 24.5171C602.718 24.7152 601.576 24.8142 600.232 24.8142C598.48 24.8142 596.927 24.4911 595.572 23.8448C594.228 23.1985 593.169 22.2134 592.398 20.8896C591.637 19.5657 591.257 17.8979 591.257 15.8861C591.257 13.843 591.601 12.1439 592.289 10.7888C592.987 9.42325 593.956 8.4017 595.197 7.72414C596.437 7.03616 597.881 6.69217 599.528 6.69217ZM599.559 10.0852C598.632 10.0852 597.86 10.3823 597.245 10.9764C596.641 11.5706 596.291 12.5035 596.198 13.7752H602.89C602.879 13.0664 602.749 12.4358 602.499 11.8833C602.259 11.3308 601.894 10.893 601.404 10.5699C600.925 10.2467 600.31 10.0852 599.559 10.0852ZM616.008 24.5015H611.239V0.171995H616.008V24.5015ZM636.914 15.7297C636.914 17.1891 636.716 18.4817 636.319 19.6074C635.934 20.7332 635.366 21.687 634.615 22.4688C633.875 23.2402 632.979 23.8239 631.926 24.22C630.883 24.6162 629.705 24.8142 628.392 24.8142C627.162 24.8142 626.031 24.6162 624.999 24.22C623.977 23.8239 623.086 23.2402 622.325 22.4688C621.575 21.687 620.991 20.7332 620.574 19.6074C620.168 18.4817 619.964 17.1891 619.964 15.7297C619.964 13.7909 620.308 12.1491 620.996 10.8044C621.684 9.45973 622.664 8.43819 623.936 7.73978C625.207 7.04138 626.724 6.69217 628.486 6.69217C630.122 6.69217 631.571 7.04138 632.833 7.73978C634.104 8.43819 635.1 9.45973 635.819 10.8044C636.549 12.1491 636.914 13.7909 636.914 15.7297ZM624.827 15.7297C624.827 16.8764 624.952 17.8406 625.202 18.6224C625.452 19.4042 625.843 19.9931 626.375 20.3892C626.907 20.7854 627.6 20.9834 628.455 20.9834C629.299 20.9834 629.982 20.7854 630.503 20.3892C631.034 19.9931 631.42 19.4042 631.66 18.6224C631.91 17.8406 632.035 16.8764 632.035 15.7297C632.035 14.5727 631.91 13.6137 631.66 12.8527C631.42 12.0814 631.034 11.5028 630.503 11.1171C629.971 10.7315 629.278 10.5386 628.423 10.5386C627.162 10.5386 626.245 10.9712 625.671 11.8364C625.108 12.7016 624.827 13.9994 624.827 15.7297ZM650.579 6.69217C652.55 6.69217 654.139 7.45833 655.348 8.99065C656.568 10.523 657.178 12.7693 657.178 15.7297C657.178 17.7103 656.891 19.3781 656.318 20.7332C655.744 22.0779 654.952 23.0943 653.941 23.7822C652.93 24.4702 651.768 24.8142 650.454 24.8142C649.61 24.8142 648.885 24.71 648.281 24.5015C647.676 24.2826 647.16 24.0063 646.733 23.6728C646.306 23.3288 645.936 22.964 645.623 22.5783H645.373C645.456 22.9952 645.519 23.4226 645.56 23.8604C645.602 24.2982 645.623 24.7256 645.623 25.1426V32.1944H640.854V7.02053H644.732L645.404 9.28774H645.623C645.936 8.81866 646.316 8.38607 646.764 7.98996C647.212 7.59385 647.749 7.28113 648.375 7.0518C649.011 6.81205 649.745 6.69217 650.579 6.69217ZM649.047 10.5073C648.213 10.5073 647.551 10.6793 647.061 11.0233C646.571 11.3673 646.212 11.8833 645.982 12.5713C645.764 13.2593 645.644 14.1297 645.623 15.1825V15.6985C645.623 16.8243 645.727 17.778 645.936 18.5598C646.154 19.3416 646.514 19.9358 647.014 20.3423C647.525 20.7489 648.224 20.9521 649.11 20.9521C649.839 20.9521 650.439 20.7489 650.908 20.3423C651.377 19.9358 651.726 19.3416 651.955 18.5598C652.195 17.7676 652.315 16.8034 652.315 15.6672C652.315 13.9577 652.049 12.6703 651.518 11.8051C650.986 10.9399 650.162 10.5073 649.047 10.5073ZM668.326 6.69217C669.942 6.69217 671.333 7.00489 672.501 7.63033C673.668 8.24534 674.57 9.1418 675.206 10.3197C675.842 11.4976 676.16 12.9361 676.16 14.6352V16.9493H664.886C664.938 18.294 665.34 19.3521 666.09 20.1234C666.851 20.8844 667.904 21.2649 669.249 21.2649C670.364 21.2649 671.386 21.1502 672.313 20.9209C673.241 20.6915 674.195 20.3475 675.175 19.8889V23.579C674.309 24.0063 673.403 24.3191 672.454 24.5171C671.516 24.7152 670.374 24.8142 669.03 24.8142C667.279 24.8142 665.725 24.4911 664.37 23.8448C663.026 23.1985 661.968 22.2134 661.196 20.8896C660.435 19.5657 660.055 17.8979 660.055 15.8861C660.055 13.843 660.399 12.1439 661.087 10.7888C661.785 9.42325 662.755 8.4017 663.995 7.72414C665.235 7.03616 666.679 6.69217 668.326 6.69217ZM668.357 10.0852C667.43 10.0852 666.658 10.3823 666.043 10.9764C665.439 11.5706 665.09 12.5035 664.996 13.7752H671.688C671.677 13.0664 671.547 12.4358 671.297 11.8833C671.057 11.3308 670.692 10.893 670.202 10.5699C669.723 10.2467 669.108 10.0852 668.357 10.0852ZM689.794 6.69217C690.034 6.69217 690.31 6.70781 690.623 6.73908C690.946 6.75993 691.207 6.7912 691.405 6.8329L691.045 11.3048C690.889 11.2527 690.665 11.2162 690.373 11.1953C690.091 11.164 689.846 11.1484 689.638 11.1484C689.023 11.1484 688.424 11.2266 687.84 11.383C687.266 11.5393 686.75 11.7947 686.292 12.1491C685.833 12.4931 685.468 12.9518 685.197 13.5251C684.937 14.088 684.806 14.7812 684.806 15.6046V24.5015H680.037V7.02053H683.649L684.353 9.96008H684.588C684.931 9.36592 685.359 8.82387 685.87 8.33395C686.391 7.8336 686.98 7.43749 687.637 7.14562C688.304 6.84332 689.023 6.69217 689.794 6.69217ZM706.775 19.3104C706.775 20.4987 706.493 21.5046 705.931 22.3281C705.378 23.1412 704.549 23.7614 703.444 24.1888C702.339 24.6057 700.964 24.8142 699.317 24.8142C698.097 24.8142 697.049 24.736 696.174 24.5797C695.309 24.4233 694.433 24.1627 693.547 23.7979V19.8576C694.495 20.285 695.512 20.6394 696.596 20.9209C697.69 21.1919 698.649 21.3274 699.473 21.3274C700.401 21.3274 701.063 21.1919 701.459 20.9209C701.865 20.6394 702.068 20.2746 702.068 19.8263C702.068 19.5345 701.985 19.2739 701.818 19.0446C701.662 18.8048 701.318 18.539 700.786 18.2471C700.255 17.9448 699.421 17.5539 698.285 17.0744C697.19 16.6158 696.288 16.1519 695.58 15.6828C694.881 15.2138 694.36 14.6613 694.016 14.0254C693.682 13.3791 693.516 12.5609 693.516 11.5706C693.516 9.95487 694.141 8.74048 695.392 7.92741C696.653 7.10392 698.337 6.69217 700.442 6.69217C701.526 6.69217 702.558 6.80163 703.538 7.02053C704.529 7.23943 705.545 7.58863 706.587 8.06813L705.149 11.508C704.284 11.1328 703.465 10.8253 702.694 10.5855C701.933 10.3458 701.156 10.2259 700.364 10.2259C699.666 10.2259 699.139 10.3197 698.785 10.5073C698.431 10.695 698.253 10.9816 698.253 11.3673C698.253 11.6488 698.342 11.8989 698.519 12.1178C698.707 12.3367 699.061 12.5817 699.582 12.8527C700.114 13.1133 700.891 13.4521 701.912 13.8691C702.902 14.2756 703.762 14.703 704.492 15.1512C705.222 15.589 705.785 16.1363 706.181 16.793C706.577 17.4393 706.775 18.2784 706.775 19.3104ZM728.478 10.6012H724.35V24.5015H719.581V10.6012H716.954V8.30267L719.581 7.02053V5.73838C719.581 4.24776 719.831 3.0907 720.331 2.26721C720.842 1.43329 721.556 0.849552 722.473 0.515985C723.401 0.171995 724.496 0 725.757 0C726.685 0 727.529 0.0781796 728.29 0.234539C729.051 0.380474 729.671 0.547257 730.151 0.734888L728.931 4.23733C728.566 4.12267 728.17 4.01843 727.743 3.92462C727.315 3.8308 726.825 3.78389 726.273 3.78389C725.606 3.78389 725.116 3.98716 724.803 4.39369C724.501 4.7898 724.35 5.30058 724.35 5.92601V7.02053H728.478V10.6012ZM740.986 6.69217C741.226 6.69217 741.502 6.70781 741.815 6.73908C742.138 6.75993 742.399 6.7912 742.597 6.8329L742.237 11.3048C742.081 11.2527 741.857 11.2162 741.565 11.1953C741.283 11.164 741.038 11.1484 740.83 11.1484C740.215 11.1484 739.616 11.2266 739.032 11.383C738.458 11.5393 737.942 11.7947 737.484 12.1491C737.025 12.4931 736.66 12.9518 736.389 13.5251C736.129 14.088 735.998 14.7812 735.998 15.6046V24.5015H731.229V7.02053H734.841L735.545 9.96008H735.78C736.123 9.36592 736.551 8.82387 737.062 8.33395C737.583 7.8336 738.172 7.43749 738.829 7.14562C739.496 6.84332 740.215 6.69217 740.986 6.69217ZM761.657 15.7297C761.657 17.1891 761.459 18.4817 761.063 19.6074C760.677 20.7332 760.109 21.687 759.358 22.4688C758.618 23.2402 757.722 23.8239 756.669 24.22C755.627 24.6162 754.449 24.8142 753.135 24.8142C751.905 24.8142 750.774 24.6162 749.742 24.22C748.721 23.8239 747.83 23.2402 747.069 22.4688C746.318 21.687 745.734 20.7332 745.317 19.6074C744.911 18.4817 744.708 17.1891 744.708 15.7297C744.708 13.7909 745.052 12.1491 745.74 10.8044C746.428 9.45973 747.407 8.43819 748.679 7.73978C749.951 7.04138 751.468 6.69217 753.229 6.69217C754.866 6.69217 756.315 7.04138 757.576 7.73978C758.848 8.43819 759.843 9.45973 760.562 10.8044C761.292 12.1491 761.657 13.7909 761.657 15.7297ZM749.57 15.7297C749.57 16.8764 749.695 17.8406 749.946 18.6224C750.196 19.4042 750.587 19.9931 751.118 20.3892C751.65 20.7854 752.343 20.9834 753.198 20.9834C754.042 20.9834 754.725 20.7854 755.246 20.3892C755.778 19.9931 756.164 19.4042 756.403 18.6224C756.653 17.8406 756.779 16.8764 756.779 15.7297C756.779 14.5727 756.653 13.6137 756.403 12.8527C756.164 12.0814 755.778 11.5028 755.246 11.1171C754.715 10.7315 754.021 10.5386 753.167 10.5386C751.905 10.5386 750.988 10.9712 750.415 11.8364C749.852 12.7016 749.57 13.9994 749.57 15.7297ZM786.127 6.69217C788.108 6.69217 789.604 7.20295 790.615 8.22449C791.636 9.23562 792.147 10.8618 792.147 13.1029V24.5015H787.362V14.2912C787.362 13.0404 787.149 12.097 786.721 11.4611C786.294 10.8253 785.632 10.5073 784.736 10.5073C783.474 10.5073 782.578 10.9608 782.046 11.8677C781.515 12.7641 781.249 14.0515 781.249 15.7297V24.5015H776.48V14.2912C776.48 13.4573 776.386 12.7589 776.198 12.196C776.011 11.6331 775.724 11.211 775.338 10.9295C774.953 10.6481 774.458 10.5073 773.853 10.5073C772.967 10.5073 772.269 10.7315 771.758 11.1797C771.257 11.6175 770.898 12.269 770.679 13.1342C770.47 13.9889 770.366 15.0365 770.366 16.277V24.5015H765.597V7.02053H769.24L769.881 9.25646H770.147C770.502 8.65188 770.945 8.16195 771.476 7.78669C772.018 7.41143 772.613 7.13519 773.259 6.95798C773.905 6.78078 774.562 6.69217 775.229 6.69217C776.511 6.69217 777.595 6.90065 778.481 7.31761C779.378 7.73457 780.066 8.38085 780.545 9.25646H780.967C781.489 8.36001 782.223 7.70851 783.172 7.30197C784.131 6.89544 785.116 6.69217 786.127 6.69217Z" fill="#232323"/>
<path d="M824.717 12.8527C824.717 15.4274 824.221 17.58 823.231 19.3104C822.251 21.0303 820.828 22.3281 818.963 23.2037C817.097 24.0689 814.85 24.5015 812.224 24.5015H805.75V1.64177H812.927C815.325 1.64177 817.404 2.06915 819.166 2.92392C820.928 3.76826 822.293 5.02434 823.262 6.69217C824.232 8.34958 824.717 10.4031 824.717 12.8527ZM819.682 12.9778C819.682 11.2891 819.432 9.90275 818.931 8.81866C818.441 7.72414 817.712 6.91629 816.742 6.39509C815.783 5.87389 814.595 5.6133 813.177 5.6133H810.597V20.4987H812.677C815.043 20.4987 816.8 19.868 817.946 18.6067C819.103 17.3454 819.682 15.4691 819.682 12.9778ZM836.287 6.69217C837.903 6.69217 839.295 7.00489 840.462 7.63033C841.629 8.24534 842.531 9.1418 843.167 10.3197C843.803 11.4976 844.121 12.9361 844.121 14.6352V16.9493H832.847C832.899 18.294 833.301 19.3521 834.051 20.1234C834.812 20.8844 835.865 21.2649 837.21 21.2649C838.325 21.2649 839.347 21.1502 840.274 20.9209C841.202 20.6915 842.156 20.3475 843.136 19.8889V23.579C842.271 24.0063 841.364 24.3191 840.415 24.5171C839.477 24.7152 838.336 24.8142 836.991 24.8142C835.24 24.8142 833.686 24.4911 832.331 23.8448C830.987 23.1985 829.929 22.2134 829.157 20.8896C828.396 19.5657 828.016 17.8979 828.016 15.8861C828.016 13.843 828.36 12.1439 829.048 10.7888C829.746 9.42325 830.716 8.4017 831.956 7.72414C833.197 7.03616 834.64 6.69217 836.287 6.69217ZM836.318 10.0852C835.391 10.0852 834.619 10.3823 834.004 10.9764C833.4 11.5706 833.051 12.5035 832.957 13.7752H839.649C839.638 13.0664 839.508 12.4358 839.258 11.8833C839.018 11.3308 838.653 10.893 838.164 10.5699C837.684 10.2467 837.069 10.0852 836.318 10.0852ZM853.534 24.8142C851.584 24.8142 849.995 24.0533 848.765 22.5314C847.545 20.999 846.935 18.7527 846.935 15.7923C846.935 12.8006 847.555 10.5386 848.796 9.00629C850.036 7.46355 851.657 6.69217 853.659 6.69217C854.493 6.69217 855.228 6.80684 855.863 7.03616C856.499 7.26549 857.046 7.573 857.505 7.95868C857.974 8.34437 858.37 8.77696 858.693 9.25646H858.85C858.787 8.9229 858.709 8.43297 858.615 7.78669C858.532 7.12998 858.49 6.45764 858.49 5.76965V0.171995H863.275V24.5015H859.616L858.693 22.2343H858.49C858.188 22.7138 857.807 23.1516 857.349 23.5477C856.901 23.9334 856.364 24.2409 855.738 24.4702C855.113 24.6995 854.378 24.8142 853.534 24.8142ZM855.207 21.0147C856.51 21.0147 857.427 20.629 857.959 19.8576C858.501 19.0758 858.787 17.9031 858.819 16.3395V15.8236C858.819 14.1244 858.558 12.8267 858.037 11.9302C857.516 11.0233 856.546 10.5699 855.128 10.5699C854.076 10.5699 853.252 11.0233 852.658 11.9302C852.064 12.8371 851.767 14.1453 851.767 15.8548C851.767 17.5644 852.064 18.8517 852.658 19.7169C853.263 20.5821 854.112 21.0147 855.207 21.0147ZM873.032 7.02053V24.5015H868.263V7.02053H873.032ZM870.655 0.171995C871.364 0.171995 871.974 0.338778 872.484 0.672345C872.995 0.995487 873.251 1.60529 873.251 2.50175C873.251 3.38778 872.995 4.0028 872.484 4.34679C871.974 4.68035 871.364 4.84714 870.655 4.84714C869.936 4.84714 869.321 4.68035 868.81 4.34679C868.31 4.0028 868.059 3.38778 868.059 2.50175C868.059 1.60529 868.31 0.995487 868.81 0.672345C869.321 0.338778 869.936 0.171995 870.655 0.171995ZM885.149 24.8142C883.419 24.8142 881.944 24.5015 880.724 23.8761C879.505 23.2402 878.577 22.2603 877.941 20.9365C877.305 19.6127 876.988 17.9188 876.988 15.8548C876.988 13.7179 877.347 11.9771 878.066 10.6324C878.796 9.27731 879.802 8.28183 881.084 7.64597C882.377 7.0101 883.873 6.69217 885.572 6.69217C886.781 6.69217 887.823 6.81205 888.699 7.0518C889.585 7.28113 890.356 7.55736 891.013 7.8805L889.606 11.5706C888.855 11.2683 888.157 11.0233 887.51 10.8357C886.864 10.6376 886.218 10.5386 885.572 10.5386C884.738 10.5386 884.045 10.7367 883.492 11.1328C882.94 11.5185 882.528 12.1022 882.257 12.884C881.986 13.6658 881.85 14.6456 881.85 15.8236C881.85 16.9806 881.996 17.9396 882.288 18.7006C882.58 19.4615 883.002 20.0296 883.555 20.4049C884.107 20.7697 884.779 20.9521 885.572 20.9521C886.562 20.9521 887.443 20.8218 888.214 20.5612C888.985 20.2902 889.736 19.915 890.466 19.4354V23.5164C889.736 23.9751 888.97 24.3034 888.167 24.5015C887.375 24.71 886.369 24.8142 885.149 24.8142ZM901.692 6.6609C904.038 6.6609 905.836 7.17168 907.087 8.19322C908.338 9.21477 908.963 10.7679 908.963 12.8527V24.5015H905.633L904.71 22.1248H904.585C904.085 22.7503 903.574 23.261 903.053 23.6571C902.531 24.0533 901.932 24.3451 901.254 24.5328C900.577 24.7204 899.753 24.8142 898.784 24.8142C897.752 24.8142 896.824 24.6162 896.001 24.22C895.188 23.8239 894.547 23.2193 894.078 22.4063C893.608 21.5828 893.374 20.5404 893.374 19.2791C893.374 17.4236 894.025 16.0581 895.328 15.1825C896.631 14.2964 898.586 13.8065 901.192 13.7127L904.225 13.6189V12.8527C904.225 11.9354 903.986 11.2631 903.506 10.8357C903.027 10.4083 902.359 10.1946 901.505 10.1946C900.66 10.1946 899.832 10.3145 899.019 10.5542C898.205 10.794 897.392 11.0963 896.579 11.4611L895 8.24013C895.928 7.7502 896.965 7.36452 898.112 7.08307C899.269 6.80163 900.462 6.6609 901.692 6.6609ZM904.225 16.4021L902.38 16.4646C900.837 16.5063 899.764 16.7826 899.159 17.2933C898.565 17.8041 898.268 18.4764 898.268 19.3104C898.268 20.04 898.482 20.5612 898.909 20.874C899.336 21.1762 899.894 21.3274 900.582 21.3274C901.604 21.3274 902.464 21.0251 903.162 20.4205C903.871 19.8159 904.225 18.9559 904.225 17.8406V16.4021ZM921.253 21.0147C921.774 21.0147 922.28 20.9626 922.769 20.8583C923.27 20.7541 923.765 20.6238 924.255 20.4674V24.0168C923.744 24.2461 923.108 24.4337 922.347 24.5797C921.597 24.736 920.773 24.8142 919.877 24.8142C918.834 24.8142 917.896 24.6474 917.062 24.3139C916.239 23.9699 915.587 23.3809 915.108 22.547C914.639 21.7027 914.404 20.53 914.404 19.0289V10.6012H912.121V8.58412L914.748 6.98926L916.124 3.29918H919.173V7.02053H924.067V10.6012H919.173V19.0289C919.173 19.696 919.361 20.1964 919.736 20.53C920.122 20.8531 920.627 21.0147 921.253 21.0147ZM935.012 6.69217C936.628 6.69217 938.02 7.00489 939.187 7.63033C940.355 8.24534 941.256 9.1418 941.892 10.3197C942.528 11.4976 942.846 12.9361 942.846 14.6352V16.9493H931.572C931.625 18.294 932.026 19.3521 932.776 20.1234C933.537 20.8844 934.59 21.2649 935.935 21.2649C937.05 21.2649 938.072 21.1502 939 20.9209C939.927 20.6915 940.881 20.3475 941.861 19.8889V23.579C940.996 24.0063 940.089 24.3191 939.14 24.5171C938.202 24.7152 937.061 24.8142 935.716 24.8142C933.965 24.8142 932.412 24.4911 931.057 23.8448C929.712 23.1985 928.654 22.2134 927.882 20.8896C927.121 19.5657 926.741 17.8979 926.741 15.8861C926.741 13.843 927.085 12.1439 927.773 10.7888C928.471 9.42325 929.441 8.4017 930.681 7.72414C931.922 7.03616 933.365 6.69217 935.012 6.69217ZM935.044 10.0852C934.116 10.0852 933.345 10.3823 932.73 10.9764C932.125 11.5706 931.776 12.5035 931.682 13.7752H938.374C938.364 13.0664 938.233 12.4358 937.983 11.8833C937.743 11.3308 937.379 10.893 936.889 10.5699C936.409 10.2467 935.794 10.0852 935.044 10.0852ZM952.259 24.8142C950.31 24.8142 948.72 24.0533 947.49 22.5314C946.27 20.999 945.66 18.7527 945.66 15.7923C945.66 12.8006 946.281 10.5386 947.521 9.00629C948.762 7.46355 950.383 6.69217 952.384 6.69217C953.218 6.69217 953.953 6.80684 954.589 7.03616C955.224 7.26549 955.772 7.573 956.23 7.95868C956.699 8.34437 957.096 8.77696 957.419 9.25646H957.575C957.512 8.9229 957.434 8.43297 957.34 7.78669C957.257 7.12998 957.215 6.45764 957.215 5.76965V0.171995H962V24.5015H958.341L957.419 22.2343H957.215C956.913 22.7138 956.533 23.1516 956.074 23.5477C955.626 23.9334 955.089 24.2409 954.463 24.4702C953.838 24.6995 953.103 24.8142 952.259 24.8142ZM953.932 21.0147C955.235 21.0147 956.152 20.629 956.684 19.8576C957.226 19.0758 957.512 17.9031 957.544 16.3395V15.8236C957.544 14.1244 957.283 12.8267 956.762 11.9302C956.241 11.0233 955.271 10.5699 953.854 10.5699C952.801 10.5699 951.977 11.0233 951.383 11.9302C950.789 12.8371 950.492 14.1453 950.492 15.8548C950.492 17.5644 950.789 18.8517 951.383 19.7169C951.988 20.5821 952.837 21.0147 953.932 21.0147ZM416.947 61.6837C419.022 61.6837 420.731 61.9339 422.076 62.4342C423.431 62.9346 424.437 63.6903 425.094 64.7014C425.75 65.7126 426.079 66.9895 426.079 68.5322C426.079 69.5746 425.881 70.4867 425.485 71.2685C425.089 72.0503 424.567 72.7122 423.921 73.2543C423.275 73.7963 422.576 74.2393 421.826 74.5833L428.549 84.5434H423.171L417.714 75.7717H415.134V84.5434H410.287V61.6837H416.947ZM416.603 65.6552H415.134V71.8314H416.697C418.303 71.8314 419.449 71.5656 420.137 71.034C420.836 70.4919 421.185 69.6997 421.185 68.6573C421.185 67.5732 420.81 66.8019 420.059 66.3432C419.319 65.8846 418.167 65.6552 416.603 65.6552ZM438.259 66.7341C439.875 66.7341 441.267 67.0468 442.434 67.6723C443.601 68.2873 444.503 69.1837 445.139 70.3616C445.775 71.5395 446.093 72.9781 446.093 74.6772V76.9913H434.819C434.871 78.336 435.273 79.394 436.023 80.1654C436.784 80.9263 437.837 81.3068 439.182 81.3068C440.297 81.3068 441.319 81.1921 442.246 80.9628C443.174 80.7335 444.128 80.3895 445.108 79.9308V83.6209C444.243 84.0483 443.336 84.361 442.387 84.5591C441.449 84.7571 440.308 84.8561 438.963 84.8561C437.212 84.8561 435.658 84.533 434.303 83.8867C432.959 83.2404 431.901 82.2554 431.129 80.9315C430.368 79.6077 429.988 77.9399 429.988 75.928C429.988 73.8849 430.332 72.1858 431.02 70.8307C431.718 69.4652 432.688 68.4436 433.928 67.7661C435.169 67.0781 436.612 66.7341 438.259 66.7341ZM438.29 70.1271C437.363 70.1271 436.591 70.4242 435.976 71.0184C435.372 71.6125 435.023 72.5455 434.929 73.8172H441.621C441.611 73.1084 441.48 72.4777 441.23 71.9252C440.99 71.3728 440.625 70.935 440.136 70.6118C439.656 70.2887 439.041 70.1271 438.29 70.1271ZM462.167 79.3523C462.167 80.5406 461.885 81.5465 461.322 82.37C460.77 83.1831 459.941 83.8033 458.836 84.2307C457.731 84.6477 456.355 84.8561 454.708 84.8561C453.489 84.8561 452.441 84.778 451.565 84.6216C450.7 84.4652 449.825 84.2046 448.939 83.8398V79.8996C449.887 80.3269 450.903 80.6813 451.988 80.9628C453.082 81.2338 454.041 81.3693 454.865 81.3693C455.792 81.3693 456.454 81.2338 456.85 80.9628C457.257 80.6813 457.46 80.3165 457.46 79.8683C457.46 79.5764 457.377 79.3158 457.21 79.0865C457.054 78.8467 456.71 78.5809 456.178 78.2891C455.646 77.9868 454.812 77.5959 453.676 77.1164C452.582 76.6577 451.68 76.1938 450.971 75.7248C450.273 75.2557 449.752 74.7032 449.408 74.0674C449.074 73.4211 448.907 72.6028 448.907 71.6125C448.907 69.9968 449.533 68.7824 450.784 67.9693C452.045 67.1459 453.728 66.7341 455.834 66.7341C456.918 66.7341 457.95 66.8436 458.93 67.0625C459.92 67.2814 460.937 67.6306 461.979 68.1101L460.54 71.55C459.675 71.1747 458.857 70.8672 458.086 70.6275C457.325 70.3877 456.548 70.2678 455.756 70.2678C455.057 70.2678 454.531 70.3616 454.177 70.5493C453.822 70.7369 453.645 71.0236 453.645 71.4092C453.645 71.6907 453.734 71.9409 453.911 72.1598C454.098 72.3787 454.453 72.6236 454.974 72.8947C455.506 73.1553 456.282 73.494 457.304 73.911C458.294 74.3175 459.154 74.7449 459.884 75.1931C460.613 75.6309 461.176 76.1782 461.572 76.8349C461.968 77.4812 462.167 78.3203 462.167 79.3523ZM481.774 75.7717C481.774 77.231 481.576 78.5236 481.18 79.6494C480.794 80.7752 480.226 81.729 479.475 82.5108C478.735 83.2821 477.839 83.8659 476.786 84.262C475.744 84.6581 474.566 84.8561 473.252 84.8561C472.022 84.8561 470.891 84.6581 469.859 84.262C468.838 83.8659 467.947 83.2821 467.186 82.5108C466.435 81.729 465.851 80.7752 465.434 79.6494C465.028 78.5236 464.825 77.231 464.825 75.7717C464.825 73.8328 465.169 72.191 465.857 70.8464C466.545 69.5017 467.524 68.4801 468.796 67.7817C470.068 67.0833 471.585 66.7341 473.346 66.7341C474.983 66.7341 476.432 67.0833 477.693 67.7817C478.965 68.4801 479.96 69.5017 480.679 70.8464C481.409 72.191 481.774 73.8328 481.774 75.7717ZM469.687 75.7717C469.687 76.9183 469.812 77.8825 470.063 78.6643C470.313 79.4461 470.704 80.0351 471.235 80.4312C471.767 80.8273 472.46 81.0253 473.315 81.0253C474.159 81.0253 474.842 80.8273 475.363 80.4312C475.895 80.0351 476.281 79.4461 476.52 78.6643C476.77 77.8825 476.896 76.9183 476.896 75.7717C476.896 74.6146 476.77 73.6556 476.52 72.8947C476.281 72.1233 475.895 71.5448 475.363 71.1591C474.832 70.7734 474.138 70.5805 473.284 70.5805C472.022 70.5805 471.105 71.0131 470.532 71.8783C469.969 72.7435 469.687 74.0413 469.687 75.7717ZM501.757 67.0625V84.5434H498.098L497.457 82.3075H497.207C496.831 82.9016 496.362 83.3864 495.799 83.7616C495.237 84.1369 494.616 84.4131 493.939 84.5903C493.261 84.7675 492.558 84.8561 491.828 84.8561C490.577 84.8561 489.488 84.6372 488.56 84.1994C487.632 83.7512 486.908 83.058 486.387 82.1199C485.876 81.1817 485.62 79.9621 485.62 78.461V67.0625H490.389V77.2727C490.389 78.5236 490.613 79.467 491.062 80.1028C491.51 80.7387 492.224 81.0566 493.204 81.0566C494.173 81.0566 494.934 80.8377 495.487 80.3999C496.039 79.9517 496.425 79.3002 496.644 78.4454C496.873 77.5802 496.988 76.5274 496.988 75.287V67.0625H501.757ZM516.517 66.7341C516.757 66.7341 517.033 66.7497 517.346 66.781C517.669 66.8019 517.929 66.8331 518.127 66.8748L517.768 71.3467C517.612 71.2946 517.387 71.2581 517.096 71.2373C516.814 71.206 516.569 71.1903 516.361 71.1903C515.746 71.1903 515.146 71.2685 514.563 71.4249C513.989 71.5812 513.473 71.8366 513.015 72.191C512.556 72.535 512.191 72.9937 511.92 73.567C511.659 74.1299 511.529 74.8231 511.529 75.6466V84.5434H506.76V67.0625H510.372L511.076 70.002H511.31C511.654 69.4079 512.082 68.8658 512.592 68.3759C513.114 67.8755 513.703 67.4794 514.359 67.1875C515.026 66.8853 515.746 66.7341 516.517 66.7341ZM528.4 84.8561C526.67 84.8561 525.195 84.5434 523.975 83.918C522.756 83.2821 521.828 82.3023 521.192 80.9784C520.556 79.6546 520.238 77.9607 520.238 75.8968C520.238 73.7598 520.598 72.019 521.317 70.6744C522.047 69.3192 523.053 68.3238 524.335 67.6879C525.628 67.052 527.123 66.7341 528.822 66.7341C530.032 66.7341 531.074 66.854 531.95 67.0937C532.836 67.3231 533.607 67.5993 534.264 67.9224L532.857 71.6125C532.106 71.3102 531.408 71.0653 530.761 70.8776C530.115 70.6796 529.469 70.5805 528.822 70.5805C527.989 70.5805 527.295 70.7786 526.743 71.1747C526.19 71.5604 525.779 72.1441 525.508 72.9259C525.237 73.7077 525.101 74.6876 525.101 75.8655C525.101 77.0225 525.247 77.9815 525.539 78.7425C525.831 79.5034 526.253 80.0715 526.805 80.4468C527.358 80.8116 528.03 80.9941 528.822 80.9941C529.813 80.9941 530.694 80.8638 531.465 80.6032C532.236 80.3321 532.987 79.9569 533.717 79.4774V83.5584C532.987 84.017 532.221 84.3454 531.418 84.5434C530.626 84.7519 529.62 84.8561 528.4 84.8561ZM544.99 66.7341C546.606 66.7341 547.997 67.0468 549.165 67.6723C550.332 68.2873 551.234 69.1837 551.87 70.3616C552.506 71.5395 552.824 72.9781 552.824 74.6772V76.9913H541.55C541.602 78.336 542.004 79.394 542.754 80.1654C543.515 80.9263 544.568 81.3068 545.913 81.3068C547.028 81.3068 548.049 81.1921 548.977 80.9628C549.905 80.7335 550.859 80.3895 551.839 79.9308V83.6209C550.973 84.0483 550.066 84.361 549.118 84.5591C548.18 84.7571 547.038 84.8561 545.694 84.8561C543.942 84.8561 542.389 84.533 541.034 83.8867C539.689 83.2404 538.631 82.2554 537.86 80.9315C537.099 79.6077 536.719 77.9399 536.719 75.928C536.719 73.8849 537.063 72.1858 537.751 70.8307C538.449 69.4652 539.418 68.4436 540.659 67.7661C541.899 67.0781 543.343 66.7341 544.99 66.7341ZM545.021 70.1271C544.094 70.1271 543.322 70.4242 542.707 71.0184C542.103 71.6125 541.753 72.5455 541.66 73.8172H548.352C548.341 73.1084 548.211 72.4777 547.961 71.9252C547.721 71.3728 547.356 70.935 546.866 70.6118C546.387 70.2887 545.772 70.1271 545.021 70.1271Z" fill="url(#paint0_linear_8_1240)"/>
<defs>
<linearGradient id="paint0_linear_8_1240" x1="453.285" y1="133.077" x2="860.57" y2="84.5434" gradientUnits="userSpaceOnUse">
<stop stop-color="#145E58"/>
<stop offset="0.44239" stop-color="#24A29C"/>
</linearGradient>
</defs>
</svg>
