<svg width="361" height="41" viewBox="0 0 361 41" fill="none" xmlns="http://www.w3.org/2000/svg">
<path d="M50.3721 2.3914L40.9082 39.5853H31.9278L26.8906 20.0471C26.7888 19.6739 26.6531 19.1058 26.4835 18.3426C26.3139 17.5794 26.1358 16.7483 25.9493 15.8494C25.7627 14.9335 25.5931 14.077 25.4405 13.2799C25.3048 12.4658 25.2115 11.8213 25.1606 11.3464C25.1097 11.8213 25.008 12.4573 24.8553 13.2545C24.7196 14.0516 24.5585 14.8996 24.372 15.7985C24.2023 16.6974 24.0327 17.537 23.8631 18.3171C23.6935 19.0973 23.5579 19.6909 23.4561 20.098L18.4443 39.5853H9.48929L0 2.3914H7.75934L12.5167 22.6929C12.6524 23.3035 12.805 24.0327 12.9746 24.8808C13.1612 25.7288 13.3393 26.6192 13.5089 27.552C13.6954 28.4679 13.8566 29.3583 13.9922 30.2233C14.1449 31.0713 14.2551 31.809 14.323 32.4366C14.4078 31.7921 14.518 31.0458 14.6537 30.1978C14.7894 29.3328 14.9335 28.4594 15.0862 27.5774C15.2558 26.6786 15.4254 25.8475 15.595 25.0843C15.7646 24.3211 15.9172 23.702 16.0529 23.2271L21.4717 2.3914H28.9258L34.3446 23.2271C34.4633 23.6851 34.599 24.3041 34.7517 25.0843C34.9213 25.8475 35.0909 26.6786 35.2605 27.5774C35.4301 28.4763 35.5827 29.3583 35.7184 30.2233C35.871 31.0713 35.9813 31.809 36.0491 32.4366C36.1678 31.5886 36.329 30.5625 36.5325 29.3583C36.753 28.1371 36.9819 26.9245 37.2194 25.7203C37.4738 24.5161 37.6943 23.507 37.8808 22.6929L42.6128 2.3914H50.3721ZM62.2019 0V8.06462C62.2019 9.47233 62.151 10.8122 62.0493 12.0842C61.9645 13.3562 61.8966 14.2551 61.8457 14.7809H62.2528C62.8634 13.7972 63.5842 13.0001 64.4152 12.3895C65.2632 11.7789 66.1961 11.3295 67.2137 11.0412C68.2313 10.7528 69.3252 10.6087 70.4955 10.6087C72.5477 10.6087 74.337 10.9733 75.8634 11.7026C77.3899 12.4149 78.5771 13.5428 79.4251 15.0862C80.2731 16.6126 80.6971 18.597 80.6971 21.0393V39.5853H72.9378V22.9727C72.9378 20.9375 72.5646 19.4026 71.8184 18.368C71.0721 17.3334 69.9188 16.8161 68.3585 16.8161C66.7981 16.8161 65.5685 17.1808 64.6696 17.9101C63.7707 18.6224 63.1347 19.6824 62.7616 21.0901C62.3885 22.4809 62.2019 24.1854 62.2019 26.2037V39.5853H54.4426V0H62.2019ZM100.337 10.5578C104.153 10.5578 107.079 11.3888 109.114 13.051C111.149 14.7131 112.167 17.2401 112.167 20.6322V39.5853H106.748L105.247 35.7184H105.044C104.23 36.736 103.398 37.5671 102.55 38.2116C101.702 38.856 100.727 39.3309 99.6248 39.6362C98.5224 39.9415 97.1825 40.0942 95.6052 40.0942C93.9261 40.0942 92.4167 39.7719 91.0768 39.1274C89.7539 38.4829 88.7109 37.4992 87.9476 36.1763C87.1844 34.8365 86.8028 33.1404 86.8028 31.0882C86.8028 28.0693 87.8628 25.8475 89.9829 24.4228C92.1029 22.9812 95.283 22.1841 99.523 22.0314L104.458 21.8788V20.6322C104.458 19.1397 104.068 18.0458 103.288 17.3504C102.508 16.655 101.423 16.3073 100.032 16.3073C98.6581 16.3073 97.3097 16.5024 95.9868 16.8925C94.6639 17.2825 93.341 17.7744 92.0181 18.368L89.4486 13.1273C90.9581 12.3301 92.6456 11.7026 94.5113 11.2447C96.3939 10.7868 98.3358 10.5578 100.337 10.5578ZM104.458 26.4072L101.457 26.5089C98.9464 26.5768 97.1995 27.0262 96.2158 27.8573C95.249 28.6883 94.7657 29.7823 94.7657 31.1391C94.7657 32.3263 95.1134 33.1743 95.8087 33.6832C96.5041 34.175 97.4115 34.4209 98.5309 34.4209C100.193 34.4209 101.592 33.9291 102.729 32.9454C103.882 31.9617 104.458 30.5625 104.458 28.7477V26.4072ZM132.163 33.9121C133.011 33.9121 133.834 33.8273 134.631 33.6577C135.445 33.4881 136.251 33.2761 137.048 33.0217V38.7967C136.217 39.1698 135.182 39.4751 133.944 39.7125C132.723 39.9669 131.383 40.0942 129.924 40.0942C128.228 40.0942 126.702 39.8228 125.345 39.2801C124.005 38.7204 122.945 37.7621 122.165 36.4053C121.402 35.0315 121.02 33.1235 121.02 30.6812V16.9688H117.306V13.687L121.58 11.092L123.819 5.08809H128.78V11.1429H136.742V16.9688H128.78V30.6812C128.78 31.7666 129.085 32.5807 129.695 33.1235C130.323 33.6492 131.146 33.9121 132.163 33.9121ZM202.659 2.3914L193.195 39.5853H184.214L179.177 20.0471C179.075 19.6739 178.94 19.1058 178.77 18.3426C178.6 17.5794 178.422 16.7483 178.236 15.8494C178.049 14.9335 177.88 14.077 177.727 13.2799C177.591 12.4658 177.498 11.8213 177.447 11.3464C177.396 11.8213 177.295 12.4573 177.142 13.2545C177.006 14.0516 176.845 14.8996 176.658 15.7985C176.489 16.6974 176.319 17.537 176.15 18.3171C175.98 19.0973 175.844 19.6909 175.743 20.098L170.731 39.5853H161.776L152.287 2.3914H160.046L164.803 22.6929C164.939 23.3035 165.092 24.0327 165.261 24.8808C165.448 25.7288 165.626 26.6192 165.795 27.552C165.982 28.4679 166.143 29.3583 166.279 30.2233C166.431 31.0713 166.542 31.809 166.61 32.4366C166.694 31.7921 166.805 31.0458 166.94 30.1978C167.076 29.3328 167.22 28.4594 167.373 27.5774C167.542 26.6786 167.712 25.8475 167.882 25.0843C168.051 24.3211 168.204 23.702 168.339 23.2271L173.758 2.3914H181.212L186.631 23.2271C186.75 23.6851 186.886 24.3041 187.038 25.0843C187.208 25.8475 187.377 26.6786 187.547 27.5774C187.717 28.4763 187.869 29.3583 188.005 30.2233C188.158 31.0713 188.268 31.809 188.336 32.4366C188.454 31.5886 188.616 30.5625 188.819 29.3583C189.04 28.1371 189.268 26.9245 189.506 25.7203C189.76 24.5161 189.981 23.507 190.167 22.6929L194.899 2.3914H202.659ZM218.457 10.6087C221.086 10.6087 223.35 11.1175 225.25 12.1351C227.149 13.1358 228.616 14.5943 229.651 16.5109C230.686 18.4274 231.203 20.7679 231.203 23.5324V27.2976H212.86C212.945 29.4855 213.598 31.207 214.819 32.462C216.057 33.7001 217.77 34.3192 219.958 34.3192C221.773 34.3192 223.435 34.1326 224.944 33.7595C226.454 33.3864 228.006 32.8267 229.6 32.0804V38.0844C228.192 38.7797 226.717 39.2885 225.173 39.6108C223.647 39.933 221.79 40.0942 219.602 40.0942C216.753 40.0942 214.226 39.5684 212.021 38.5168C209.833 37.4653 208.111 35.8626 206.856 33.7086C205.618 31.5546 204.999 28.841 204.999 25.5677C204.999 22.2434 205.559 19.4789 206.678 17.2741C207.815 15.0523 209.392 13.3902 211.41 12.2877C213.428 11.1684 215.777 10.6087 218.457 10.6087ZM218.508 16.1292C216.999 16.1292 215.744 16.6126 214.743 17.5794C213.759 18.5461 213.191 20.064 213.038 22.1332H223.927C223.91 20.9799 223.698 19.9538 223.291 19.0549C222.901 18.156 222.307 17.4437 221.51 16.9179C220.73 16.3921 219.729 16.1292 218.508 16.1292Z" fill="#232323"/>
<path d="M274.426 39.5853L271.729 30.7321H258.17L255.473 39.5853H246.976L260.103 2.23876H269.745L282.923 39.5853H274.426ZM269.847 24.1175L267.15 15.4678C266.981 14.8911 266.752 14.1534 266.463 13.2545C266.192 12.3386 265.912 11.4143 265.624 10.4815C265.352 9.53169 265.132 8.70911 264.962 8.01374C264.793 8.70911 264.555 9.57409 264.25 10.6087C263.962 11.6263 263.682 12.593 263.41 13.5089C263.139 14.4247 262.944 15.0777 262.825 15.4678L260.154 24.1175H269.847ZM302.894 10.6087C303.284 10.6087 303.734 10.6341 304.242 10.685C304.768 10.7189 305.192 10.7698 305.514 10.8376L304.929 18.1136C304.675 18.0288 304.31 17.9694 303.835 17.9355C303.377 17.8846 302.979 17.8592 302.64 17.8592C301.639 17.8592 300.664 17.9864 299.714 18.2408C298.781 18.4952 297.942 18.9107 297.195 19.4874C296.449 20.0471 295.855 20.7933 295.415 21.7261C294.991 22.642 294.779 23.7699 294.779 25.1097V39.5853H287.019V11.1429H292.896L294.041 15.9257H294.422C294.982 14.959 295.677 14.077 296.508 13.2799C297.356 12.4658 298.315 11.8213 299.383 11.3464C300.469 10.8546 301.639 10.6087 302.894 10.6087ZM322.407 10.6087C325.036 10.6087 327.3 11.1175 329.199 12.1351C331.099 13.1358 332.566 14.5943 333.601 16.5109C334.635 18.4274 335.153 20.7679 335.153 23.5324V27.2976H316.81C316.895 29.4855 317.548 31.207 318.769 32.462C320.007 33.7001 321.72 34.3192 323.908 34.3192C325.723 34.3192 327.385 34.1326 328.894 33.7595C330.404 33.3864 331.955 32.8267 333.55 32.0804V38.0844C332.142 38.7797 330.667 39.2885 329.123 39.6108C327.597 39.933 325.74 40.0942 323.552 40.0942C320.702 40.0942 318.175 39.5684 315.97 38.5168C313.783 37.4653 312.061 35.8626 310.806 33.7086C309.568 31.5546 308.949 28.841 308.949 25.5677C308.949 22.2434 309.509 19.4789 310.628 17.2741C311.764 15.0523 313.342 13.3902 315.36 12.2877C317.378 11.1684 319.727 10.6087 322.407 10.6087ZM322.458 16.1292C320.948 16.1292 319.693 16.6126 318.693 17.5794C317.709 18.5461 317.141 20.064 316.988 22.1332H327.877C327.86 20.9799 327.648 19.9538 327.241 19.0549C326.85 18.156 326.257 17.4437 325.46 16.9179C324.68 16.3921 323.679 16.1292 322.458 16.1292ZM344.413 27.2467V25.3641C344.413 24.2108 344.574 23.1932 344.896 22.3113C345.218 21.4124 345.736 20.5644 346.448 19.7672C347.16 18.9531 348.102 18.1221 349.272 17.2741C350.323 16.5278 351.163 15.8579 351.791 15.2643C352.435 14.6707 352.901 14.0855 353.19 13.5089C353.495 12.9153 353.648 12.2453 353.648 11.4991C353.648 10.3967 353.241 9.55713 352.427 8.98048C351.612 8.40383 350.476 8.1155 349.018 8.1155C347.559 8.1155 346.109 8.34447 344.667 8.8024C343.243 9.26032 341.792 9.86241 340.317 10.6087L337.544 5.03721C339.24 4.08743 341.08 3.32422 343.064 2.74757C345.049 2.15396 347.22 1.85715 349.577 1.85715C353.207 1.85715 356.014 2.73061 357.998 4.47752C359.999 6.20747 361 8.41231 361 11.092C361 12.5167 360.771 13.7548 360.313 14.8063C359.872 15.8409 359.194 16.8077 358.278 17.7066C357.379 18.5885 356.251 19.5213 354.894 20.505C353.877 21.2513 353.096 21.8788 352.554 22.3876C352.011 22.8964 351.638 23.4052 351.434 23.914C351.248 24.4059 351.155 25.008 351.155 25.7203V27.2467H344.413ZM343.599 35.9474C343.599 34.3531 344.031 33.2337 344.896 32.5892C345.778 31.9447 346.838 31.6225 348.076 31.6225C349.28 31.6225 350.315 31.9447 351.18 32.5892C352.062 33.2337 352.503 34.3531 352.503 35.9474C352.503 37.4738 352.062 38.5762 351.18 39.2546C350.315 39.933 349.28 40.2722 348.076 40.2722C346.838 40.2722 345.778 39.933 344.896 39.2546C344.031 38.5762 343.599 37.4738 343.599 35.9474Z" fill="url(#paint0_linear_8_1237)"/>
<defs>
<linearGradient id="paint0_linear_8_1237" x1="237.465" y1="19.5461" x2="270.029" y2="87.1786" gradientUnits="userSpaceOnUse">
<stop stop-color="#145E58"/>
<stop offset="1" stop-color="#2AC4B7"/>
</linearGradient>
</defs>
</svg>
